<svg xmlns="http://www.w3.org/2000/svg" xmlns:xlink="http://www.w3.org/1999/xlink" viewBox="0 0 64 64"><defs><style>.cls-1{fill:none;stroke-linecap:round;stroke-linejoin:round;stroke-width:2px;stroke:url(#ICON_GRAD);}</style><linearGradient id="ICON_GRAD" x1="4.26" y1="9.96" x2="58.39" y2="64.09" gradientUnits="userSpaceOnUse"><stop offset="0" stop-color="#00c3cd"/><stop offset="0.56" stop-color="#0095ff"/><stop offset="0.99" stop-color="#3d35e1"/></linearGradient></defs><g id="ART"><path class="cls-1" d="M47.39,56m0-7.44V44m0,14.3V53.67M9.89,5.75s.91,4.86,5.08,5.74l6,1.23m0,0,6.31,1.22m0-2.5a5.47,5.47,0,0,0-5.22-5.69H9.89s.21,9.37.21,14c0,3,5.26,7.23,8.48,7.23,3,0,6.54-3.05,8-5.34a7.76,7.76,0,0,0,.55-1.06,2.49,2.49,0,0,0,.19-.83V11.44Zm-6.47,32,1.3,9.25-3.33,5-3.72-5L19,36.33l-4.79-4.94m8.75,0L19,36.3M1,50.24V40.42c-.14-2.11,1.05-3.93,3.53-5.08l9.67-4m12.7,2.71L23,31.39m31.16.89c0,2.84-3,6.6-6.73,6.6s-6.73-3.76-6.73-6.6l-5.95,1.18m19.41-1.18,5.35,1.18A4.45,4.45,0,0,1,63,37.9V58.07m-31.79,0V37.9a4.3,4.3,0,0,1,3.53-4.44m2.14-5.88V16.88a10.56,10.56,0,1,1,21.1,0V28M54.75,18c0,6.55-3.29,11.86-7.36,11.86a6.3,6.3,0,0,1-5.9-3.38c-1.21-2.15-1.67-5.16-1.67-8.48m14.93,0a11.51,11.51,0,0,1-3,.39c-4.19,0-7.76-2.2-9.16-5.29M1,58.07V50.24"/></g></svg>